<svg width="51" height="45" viewBox="0 0 51 45" fill="none" xmlns="http://www.w3.org/2000/svg">
<g clip-path="url(#clip0_903_4381)">
<path d="M42.0578 24.1194H8.14587C7.49815 24.1194 6.97119 23.5924 6.97119 22.9447C6.97119 22.297 7.49815 21.77 8.14587 21.77H42.0578C42.7055 21.77 43.2325 22.297 43.2325 22.9447C43.2325 23.5924 42.7055 24.1194 42.0578 24.1194Z" fill="white"/>
<path d="M30.4098 29.8281H19.8048C19.1571 29.8281 18.6301 29.3011 18.6301 28.6534V23.1972C18.6301 22.5495 19.1571 22.0225 19.8048 22.0225C20.4525 22.0225 20.9795 22.5495 20.9795 23.1972V27.4787H29.2242V22.9447C29.2242 22.297 29.7511 21.77 30.3989 21.77C31.0466 21.77 31.5735 22.297 31.5735 22.9447V28.6534C31.5845 29.3011 31.0576 29.8281 30.4098 29.8281Z" fill="white"/>
<path d="M31.2881 11.3406C30.4758 11.3406 29.8171 10.6819 29.8171 9.86948V7.70676C29.8171 5.08295 27.6873 2.95316 25.0635 2.95316C22.4396 2.95316 20.3099 5.08295 20.3099 7.70676V9.86948C20.3099 10.6819 19.6512 11.3406 18.8388 11.3406C18.0264 11.3406 17.3677 10.6819 17.3677 9.86948V7.70676C17.3677 3.45816 20.8258 0 25.0744 0C29.323 0 32.7812 3.45816 32.7812 7.70676V9.86948C32.7592 10.6819 32.1005 11.3406 31.2881 11.3406Z" fill="white"/>
<path d="M45.7026 44.9998H4.42425C1.98707 44.9998 0 43.0237 0 40.5756V12.8224C0 10.3853 1.98707 8.39819 4.42425 8.39819H45.7026C48.1398 8.39819 50.1269 10.3853 50.1269 12.8224V40.5865C50.1269 43.0237 48.1398 44.9998 45.7026 44.9998ZM4.42425 11.3404C3.61186 11.3404 2.95316 11.9991 2.95316 12.8115V40.5756C2.95316 41.3879 3.61186 42.0466 4.42425 42.0466H45.7026C46.515 42.0466 47.1737 41.3879 47.1737 40.5756V12.8224C47.1737 12.0101 46.515 11.3514 45.7026 11.3514C45.7026 11.3404 4.42425 11.3404 4.42425 11.3404Z" fill="white"/>
</g>
<defs>
<clipPath id="clip0_903_4381">
<rect width="50.13" height="45" fill="white"/>
</clipPath>
</defs>
</svg>
