<svg width="180" height="92" viewBox="0 0 180 92" fill="none" xmlns="http://www.w3.org/2000/svg">
<mask id="mask0_137_987" style="mask-type:alpha" maskUnits="userSpaceOnUse" x="13" y="0" width="164" height="78">
<path fill-rule="evenodd" clip-rule="evenodd" d="M176.5 0.136719V17.6015H171.5V8.8538L160.474 19.4075L160.465 19.4165L150.454 28.8989L130.634 46.2137L114.543 33.0221L99.5854 25.4716L86.7914 41.4694L70.5701 62.8413L47.4532 43.8058L29.7213 77.1182L13.2539 61.0471L16.7461 57.4687L28.4411 68.8822L45.9121 36.0597L69.7325 55.6746L82.847 38.3961L98.2154 19.1791L117.287 28.8066L130.532 39.6641L147.088 25.1998L157.017 15.7954L157.026 15.7865L166.712 6.51582L149.109 8.91296L148.434 3.95868L176.5 0.136719Z" fill="#A0E28D"/>
</mask>
<g mask="url(#mask0_137_987)">
<rect x="5" y="-4" width="175" height="84" fill="url(#paint0_linear_137_987)"/>
</g>
<path d="M13.383 91.48C10.727 91.48 7.559 91.224 3.879 90.712V86.824C7.591 87.624 10.855 88.024 13.671 88.024C16.039 88.024 17.767 87.768 18.855 87.256C19.943 86.712 20.487 85.72 20.487 84.28V80.248C20.487 78.904 20.103 77.96 19.335 77.416C18.567 76.872 17.223 76.6 15.303 76.6H11.655C8.615 76.6 6.455 75.992 5.175 74.776C3.895 73.56 3.255 71.672 3.255 69.112V66.616C3.255 64.92 3.623 63.544 4.359 62.488C5.127 61.432 6.391 60.648 8.151 60.136C9.943 59.624 12.391 59.368 15.495 59.368C17.575 59.368 20.247 59.544 23.511 59.896V63.4C19.863 62.856 17.079 62.584 15.159 62.584C12.183 62.584 10.215 62.872 9.255 63.448C8.263 64.056 7.767 65.064 7.767 66.472V70.024C7.767 71.112 8.151 71.912 8.919 72.424C9.719 72.904 11.079 73.144 12.999 73.144H16.743C18.887 73.144 20.551 73.4 21.735 73.912C22.951 74.424 23.799 75.208 24.279 76.264C24.791 77.288 25.047 78.68 25.047 80.44V82.696C25.047 84.904 24.631 86.648 23.799 87.928C22.999 89.208 21.751 90.12 20.055 90.664C18.359 91.208 16.135 91.48 13.383 91.48ZM39.4151 63.112H28.8551V59.848H54.6311V63.112H44.1191V91H39.4151V63.112ZM72.0053 91.48C63.3013 91.48 58.9492 88.664 58.9492 83.032V68.296C58.9492 62.344 63.3013 59.368 72.0053 59.368C80.8053 59.368 85.2053 62.328 85.2053 68.248V83.032C85.2053 86.04 83.9893 88.2 81.5573 89.512C79.1253 90.824 75.9413 91.48 72.0053 91.48ZM72.1013 88.36C77.8293 88.36 80.6933 86.568 80.6933 82.984V68.152C80.6933 64.312 77.8133 62.392 72.0533 62.392C69.2693 62.392 67.1253 62.824 65.6213 63.688C64.1493 64.552 63.4133 66.04 63.4133 68.152V82.984C63.4133 86.568 66.3093 88.36 72.1013 88.36ZM92.3914 59.848H98.0074L114.951 85.576V59.848H119.031V91H113.415L96.4714 64.84V91H92.3914V59.848ZM127.079 59.848H131.735V91H127.079V59.848ZM131.831 74.44L145.751 59.848H151.367L137.351 74.248L152.759 91H146.711L131.831 74.44ZM165.305 91.48C162.649 91.48 159.481 91.224 155.801 90.712V86.824C159.513 87.624 162.777 88.024 165.593 88.024C167.961 88.024 169.689 87.768 170.777 87.256C171.865 86.712 172.409 85.72 172.409 84.28V80.248C172.409 78.904 172.025 77.96 171.257 77.416C170.489 76.872 169.145 76.6 167.225 76.6H163.577C160.537 76.6 158.377 75.992 157.097 74.776C155.817 73.56 155.177 71.672 155.177 69.112V66.616C155.177 64.92 155.545 63.544 156.281 62.488C157.049 61.432 158.313 60.648 160.073 60.136C161.865 59.624 164.313 59.368 167.417 59.368C169.497 59.368 172.169 59.544 175.433 59.896V63.4C171.785 62.856 169.001 62.584 167.081 62.584C164.105 62.584 162.137 62.872 161.177 63.448C160.185 64.056 159.689 65.064 159.689 66.472V70.024C159.689 71.112 160.073 71.912 160.841 72.424C161.641 72.904 163.001 73.144 164.921 73.144H168.665C170.809 73.144 172.473 73.4 173.657 73.912C174.873 74.424 175.721 75.208 176.201 76.264C176.713 77.288 176.969 78.68 176.969 80.44V82.696C176.969 84.904 176.553 86.648 175.721 87.928C174.921 89.208 173.673 90.12 171.977 90.664C170.281 91.208 168.057 91.48 165.305 91.48Z" fill="white"/>
<defs>
<linearGradient id="paint0_linear_137_987" x1="180" y1="-4" x2="4.63133" y2="79.2231" gradientUnits="userSpaceOnUse">
<stop offset="0.392095" stop-color="#A0E28D"/>
<stop offset="1" stop-color="#A0E28D" stop-opacity="0"/>
</linearGradient>
</defs>
</svg>
