<svg width="29" height="23" viewBox="0 0 29 23" fill="none" xmlns="http://www.w3.org/2000/svg">
<path d="M24.1781 17.3604C27.2567 14.613 28.958 11.5 28.958 11.5C28.958 11.5 23.5283 1.54565 14.4789 1.54565C12.7407 1.55164 11.0221 1.91383 9.42932 2.60987L10.8229 4.00529C11.9947 3.57843 13.2318 3.35858 14.4789 3.35554C18.3158 3.35554 21.4994 5.46948 23.8324 7.80242C24.9551 8.93123 25.9617 10.17 26.8368 11.5C26.7318 11.6575 26.616 11.8312 26.4839 12.0213C25.8775 12.89 24.9817 14.0483 23.8324 15.1976C23.5337 15.4962 23.2224 15.7912 22.8967 16.0772L24.1781 17.3604Z" fill="#6C7175"/>
<path d="M20.4461 13.6284C20.85 12.4988 20.9248 11.2777 20.6618 10.1072C20.3988 8.93667 19.8088 7.86492 18.9605 7.01662C18.1122 6.16831 17.0404 5.57834 15.8699 5.31534C14.6994 5.05235 13.4783 5.12714 12.3487 5.53103L13.8382 7.02056C14.5338 6.92101 15.2429 6.98481 15.9096 7.20691C16.5762 7.42902 17.1819 7.80332 17.6788 8.30017C18.1756 8.79702 18.5499 9.40275 18.772 10.0694C18.9941 10.736 19.0579 11.4452 18.9584 12.1407L20.4461 13.6284ZM15.1196 15.9795L16.6073 17.4672C15.4777 17.8711 14.2566 17.9459 13.0861 17.6829C11.9156 17.4199 10.8438 16.8299 9.9955 15.9816C9.14719 15.1333 8.55722 14.0616 8.29422 12.8911C8.03123 11.7206 8.10603 10.4994 8.50991 9.36979L9.99944 10.8593C9.89989 11.5549 9.96369 12.2641 10.1858 12.9307C10.4079 13.5973 10.7822 14.203 11.2791 14.6999C11.7759 15.1967 12.3816 15.571 13.0482 15.7931C13.7149 16.0152 14.424 16.079 15.1196 15.9795Z" fill="#6C7175"/>
<path d="M6.06311 6.92099C5.73733 7.21058 5.42422 7.50378 5.12559 7.80241C4.00282 8.93122 2.9963 10.17 2.12118 11.5L2.47411 12.0212C3.08042 12.89 3.97631 14.0483 5.12559 15.1976C7.45853 17.5305 10.6439 19.6445 14.4791 19.6445C15.7749 19.6445 16.9948 19.4038 18.135 18.9929L19.5286 20.3901C17.9358 21.0861 16.2173 21.4483 14.4791 21.4544C5.42965 21.4544 0 11.5 0 11.5C0 11.5 1.69948 8.38519 4.7799 5.6396L6.0613 6.9228L6.06311 6.92099ZM24.6977 23L2.97907 1.2814L4.26047 0L25.9791 21.7186L24.6977 23Z" fill="#6C7175"/>
</svg>
