<svg width="36" height="36" viewBox="0 0 36 36" fill="none" xmlns="http://www.w3.org/2000/svg">
<path d="M0.281152 30.9727C4.19053 31.3243 7.71319 30.3399 10.9194 27.9352C7.56553 27.6399 5.32256 25.9665 4.071 22.8305C5.16787 22.9641 6.19443 22.9993 7.28428 22.704C3.67022 21.579 1.74365 19.2165 1.4835 15.4055C2.56631 15.9118 3.58584 16.2774 4.78818 16.2915C2.64365 14.6813 1.54678 12.593 1.58897 9.96333C1.61006 8.75395 1.9335 7.61489 2.57334 6.53911C6.546 11.1868 11.5312 13.7602 17.6694 14.1891C17.6343 13.9219 17.6132 13.711 17.5851 13.493C17.0788 9.5977 19.6101 6.05395 23.4773 5.31567C25.903 4.85161 28.0476 5.49145 29.8616 7.16489C30.1429 7.41802 30.3819 7.47427 30.7335 7.38286C32.1468 7.02427 33.4898 6.50395 34.7905 5.80083C34.2913 7.44614 33.2648 8.68364 31.8726 9.72427C32.189 9.66802 32.5124 9.62583 32.8288 9.56255C33.1593 9.49224 33.4898 9.41489 33.8202 9.32349C34.1366 9.23911 34.446 9.14067 34.7554 9.0352C35.0718 8.92974 35.3882 8.8102 35.7608 8.74692C35.578 9.00005 35.4023 9.26724 35.2054 9.51333C34.3898 10.5469 33.4476 11.454 32.414 12.2625C32.3085 12.3469 32.2171 12.5297 32.2241 12.6563C32.2804 15.1524 31.9288 17.5852 31.1202 19.9477C29.5312 24.6024 26.7608 28.3711 22.6054 31.0641C20.5523 32.393 18.3093 33.2649 15.9116 33.7711C13.5351 34.2704 11.1444 34.3618 8.74678 34.0805C6.34209 33.7993 4.05693 33.0891 1.90537 31.9782C1.33584 31.6899 0.787402 31.3665 0.231934 31.0571C0.253027 31.029 0.26709 31.0008 0.281152 30.9727Z" fill="white"/>
</svg>
