<svg width="45" height="45" viewBox="0 0 45 45" fill="none" xmlns="http://www.w3.org/2000/svg">
<g clip-path="url(#clip0_903_4383)">
<path d="M36.3462 45H8.65385C3.80769 45 0 41.18 0 36.3181V12.0086C0 10.9668 0.692308 10.2722 1.73077 10.2722H36.3462C41.1923 10.2722 45 14.0923 45 18.9542V36.3181C45 41.18 41.1923 45 36.3462 45ZM3.46154 13.745V36.3181C3.46154 39.2699 5.71154 41.5272 8.65385 41.5272H36.3462C39.2885 41.5272 41.5385 39.2699 41.5385 36.3181V18.9542C41.5385 16.0023 39.2885 13.745 36.3462 13.745H3.46154Z" fill="white"/>
<path d="M39.8077 13.745C38.7692 13.745 38.0769 13.0504 38.0769 12.0086V7.1467C38.0769 5.93123 37.7308 4.71575 36.6923 3.84756C35.8269 3.153 34.7885 2.97936 33.75 3.32664L4.84615 10.0986C3.98077 10.2722 3.46154 10.9668 3.46154 11.835C3.46154 12.8768 2.76923 13.5713 1.73077 13.5713C0.692308 13.5713 0 12.8768 0 11.835C0 9.40401 1.73077 7.32034 3.98077 6.79942L33.0577 0.201141C35.1346 -0.319776 37.2115 0.201141 38.9423 1.41661C40.6731 2.97936 41.7115 5.06303 41.5385 7.32034V12.0086C41.5385 13.0504 40.8462 13.745 39.8077 13.745Z" fill="white"/>
<path d="M43.2694 34.5815H31.154C27.3463 34.5815 24.231 31.456 24.231 27.636C24.231 23.8159 27.3463 20.6904 31.154 20.6904H43.2694C44.3079 20.6904 45.0002 21.385 45.0002 22.4268V32.8452C45.0002 33.887 44.3079 34.5815 43.2694 34.5815ZM31.154 24.1632C29.2502 24.1632 27.6925 25.726 27.6925 27.636C27.6925 29.546 29.2502 31.1088 31.154 31.1088H41.5386V24.1632H31.154Z" fill="white"/>
</g>
<defs>
<clipPath id="clip0_903_4383">
<rect width="45" height="45" fill="white"/>
</clipPath>
</defs>
</svg>
