<svg width="23" height="23" viewBox="0 0 23 23" fill="none" xmlns="http://www.w3.org/2000/svg">
<g clip-path="url(#clip0_94_1234)">
<path d="M11.5 21.5625C8.83126 21.5625 6.27182 20.5023 4.38474 18.6153C2.49765 16.7282 1.4375 14.1687 1.4375 11.5C1.4375 8.83126 2.49765 6.27182 4.38474 4.38474C6.27182 2.49765 8.83126 1.4375 11.5 1.4375C14.1687 1.4375 16.7282 2.49765 18.6153 4.38474C20.5023 6.27182 21.5625 8.83126 21.5625 11.5C21.5625 14.1687 20.5023 16.7282 18.6153 18.6153C16.7282 20.5023 14.1687 21.5625 11.5 21.5625ZM11.5 23C14.55 23 17.4751 21.7884 19.6317 19.6317C21.7884 17.4751 23 14.55 23 11.5C23 8.45001 21.7884 5.52494 19.6317 3.36827C17.4751 1.2116 14.55 0 11.5 0C8.45001 0 5.52494 1.2116 3.36827 3.36827C1.2116 5.52494 0 8.45001 0 11.5C0 14.55 1.2116 17.4751 3.36827 19.6317C5.52494 21.7884 8.45001 23 11.5 23Z" fill="white"/>
<path d="M6.67869 6.67857C6.74545 6.61163 6.82477 6.55853 6.91209 6.52229C6.99941 6.48606 7.09302 6.46741 7.18756 6.46741C7.2821 6.46741 7.37572 6.48606 7.46304 6.52229C7.55036 6.55853 7.62967 6.61163 7.69644 6.67857L11.5001 10.4836L15.3037 6.67857C15.3705 6.61174 15.4498 6.55873 15.5372 6.52256C15.6245 6.4864 15.7181 6.46778 15.8126 6.46778C15.9071 6.46778 16.0007 6.4864 16.088 6.52256C16.1753 6.55873 16.2546 6.61174 16.3214 6.67857C16.3883 6.74539 16.4413 6.82473 16.4774 6.91204C16.5136 6.99935 16.5322 7.09293 16.5322 7.18744C16.5322 7.28195 16.5136 7.37553 16.4774 7.46284C16.4413 7.55016 16.3883 7.62949 16.3214 7.69632L12.5164 11.4999L16.3214 15.3036C16.3883 15.3704 16.4413 15.4497 16.4774 15.537C16.5136 15.6244 16.5322 15.7179 16.5322 15.8124C16.5322 15.9069 16.5136 16.0005 16.4774 16.0878C16.4413 16.1752 16.3883 16.2545 16.3214 16.3213C16.2546 16.3881 16.1753 16.4412 16.088 16.4773C16.0007 16.5135 15.9071 16.5321 15.8126 16.5321C15.7181 16.5321 15.6245 16.5135 15.5372 16.4773C15.4498 16.4412 15.3705 16.3881 15.3037 16.3213L11.5001 12.5163L7.69644 16.3213C7.62961 16.3881 7.55028 16.4412 7.46297 16.4773C7.37565 16.5135 7.28207 16.5321 7.18756 16.5321C7.09306 16.5321 6.99948 16.5135 6.91216 16.4773C6.82485 16.4412 6.74552 16.3881 6.67869 16.3213C6.61186 16.2545 6.55885 16.1752 6.52269 16.0878C6.48652 16.0005 6.46791 15.9069 6.46791 15.8124C6.46791 15.7179 6.48652 15.6244 6.52269 15.537C6.55885 15.4497 6.61186 15.3704 6.67869 15.3036L10.4838 11.4999L6.67869 7.69632C6.61175 7.62955 6.55865 7.55024 6.52241 7.46292C6.48618 7.37559 6.46753 7.28198 6.46753 7.18744C6.46753 7.0929 6.48618 6.99929 6.52241 6.91197C6.55865 6.82465 6.61175 6.74533 6.67869 6.67857Z" fill="white"/>
</g>
<defs>
<clipPath id="clip0_94_1234">
<rect width="23" height="23" fill="white"/>
</clipPath>
</defs>
</svg>
