<?xml version="1.0" encoding="utf-8"?>
<!-- Generator: Adobe Illustrator 25.1.0, SVG Export Plug-In . SVG Version: 6.00 Build 0)  -->
<svg version="1.1" id="Слой_1" xmlns="http://www.w3.org/2000/svg" xmlns:xlink="http://www.w3.org/1999/xlink" x="0px" y="0px"
	 viewBox="0 0 24 24" style="enable-background:new 0 0 24 24;" xml:space="preserve">
<style type="text/css">
	.st0{fill:#FFFFFF;stroke:#FFFFFF;stroke-miterlimit:10;}
</style>
<path class="st0" d="M8,5.7v13.8C8,19.8,7.8,20,7.5,20S7,19.8,7,19.5V5.7L4.9,7.9C4.7,8,4.3,8,4.1,7.9C4,7.7,4,7.3,4.1,7.1l3-3
	C7.3,4,7.7,4,7.9,4.1l3,3c0.2,0.2,0.2,0.5,0,0.7c-0.2,0.2-0.5,0.2-0.7,0L8,5.7z M12.5,6C12.2,6,12,5.8,12,5.5S12.2,5,12.5,5h8
	C20.8,5,21,5.2,21,5.5S20.8,6,20.5,6H12.5z M12.5,10C12.2,10,12,9.8,12,9.5S12.2,9,12.5,9h6C18.8,9,19,9.2,19,9.5S18.8,10,18.5,10
	H12.5z M12.5,14c-0.3,0-0.5-0.2-0.5-0.5s0.2-0.5,0.5-0.5h4c0.3,0,0.5,0.2,0.5,0.5S16.8,14,16.5,14H12.5z M12.5,18
	c-0.3,0-0.5-0.2-0.5-0.5s0.2-0.5,0.5-0.5h2c0.3,0,0.5,0.2,0.5,0.5S14.8,18,14.5,18H12.5z"/>
</svg>
