<?xml version="1.0" encoding="utf-8"?>
<!-- Generator: Adobe Illustrator 25.1.0, SVG Export Plug-In . SVG Version: 6.00 Build 0)  -->
<svg version="1.1" id="Glyph" xmlns="http://www.w3.org/2000/svg" xmlns:xlink="http://www.w3.org/1999/xlink" x="0px" y="0px"
	 viewBox="0 0 32 32" style="enable-background:new 0 0 32 32;" xml:space="preserve">
<style type="text/css">
	.st0{fill:#FFFFFF;}
</style>
<path id="XMLID_223_" class="st0" d="M27.4,24.6l-5.1-5.1c1-1.6,1.7-3.5,1.7-5.5c0-5.5-4.5-10-10-10S4,8.5,4,14s4.5,10,10,10
	c2,0,3.9-0.6,5.5-1.7l5.1,5.1c0.8,0.8,2,0.8,2.8,0C28.2,26.6,28.2,25.4,27.4,24.6z M7,14c0-3.9,3.1-7,7-7s7,3.1,7,7s-3.1,7-7,7
	S7,17.9,7,14z"/>
</svg>
