<?xml version="1.0" encoding="utf-8"?>
<!-- Generator: Adobe Illustrator 25.1.0, SVG Export Plug-In . SVG Version: 6.00 Build 0)  -->
<svg version="1.1" id="Слой_1" xmlns="http://www.w3.org/2000/svg" xmlns:xlink="http://www.w3.org/1999/xlink" x="0px" y="0px"
	 viewBox="0 0 24 24" style="enable-background:new 0 0 24 24;" xml:space="preserve">
<style type="text/css">
	.st0{fill:#FFFFFF;stroke:#FFFFFF;stroke-miterlimit:10;}
</style>
<path class="st0" d="M6.9,19.8C6.8,19.9,6.7,20,6.5,20s-0.3-0.1-0.4-0.2l-2.9-2.9c-0.2-0.2-0.2-0.5,0-0.7c0.2-0.2,0.5-0.2,0.7,0
	L6,18.3V4.5C6,4.2,6.2,4,6.5,4S7,4.2,7,4.5v13.8l2.1-2.1c0.2-0.2,0.5-0.2,0.7,0c0.2,0.2,0.2,0.5,0,0.7L6.9,19.8L6.9,19.8z M12.5,6
	C12.2,6,12,5.8,12,5.5S12.2,5,12.5,5h8C20.8,5,21,5.2,21,5.5S20.8,6,20.5,6H12.5z M12.5,10C12.2,10,12,9.8,12,9.5S12.2,9,12.5,9h6
	C18.8,9,19,9.2,19,9.5S18.8,10,18.5,10H12.5z M12.5,14c-0.3,0-0.5-0.2-0.5-0.5s0.2-0.5,0.5-0.5h4c0.3,0,0.5,0.2,0.5,0.5
	S16.8,14,16.5,14H12.5z M12.5,18c-0.3,0-0.5-0.2-0.5-0.5s0.2-0.5,0.5-0.5h2c0.3,0,0.5,0.2,0.5,0.5S14.8,18,14.5,18H12.5z"/>
</svg>
