<svg width="23" height="23" viewBox="0 0 23 23" fill="none" xmlns="http://www.w3.org/2000/svg">
<g clip-path="url(#clip0_361_838)">
<circle cx="11.5" cy="11.5" r="10.5" fill="#47959A"/>
<path d="M11.5 21.5625C8.83126 21.5625 6.27182 20.5023 4.38474 18.6153C2.49765 16.7282 1.4375 14.1687 1.4375 11.5C1.4375 8.83126 2.49765 6.27182 4.38474 4.38474C6.27182 2.49765 8.83126 1.4375 11.5 1.4375C14.1687 1.4375 16.7282 2.49765 18.6153 4.38474C20.5023 6.27182 21.5625 8.83126 21.5625 11.5C21.5625 14.1687 20.5023 16.7282 18.6153 18.6153C16.7282 20.5023 14.1687 21.5625 11.5 21.5625ZM11.5 23C14.55 23 17.4751 21.7884 19.6317 19.6317C21.7884 17.4751 23 14.55 23 11.5C23 8.45001 21.7884 5.52494 19.6317 3.36827C17.4751 1.2116 14.55 0 11.5 0C8.45001 0 5.52494 1.2116 3.36827 3.36827C1.2116 5.52494 0 8.45001 0 11.5C0 14.55 1.2116 17.4751 3.36827 19.6317C5.52494 21.7884 8.45001 23 11.5 23Z" fill="#394249"/>
<path d="M11.5 5.75C11.6906 5.75 11.8734 5.82573 12.0082 5.96052C12.143 6.09531 12.2188 6.27813 12.2188 6.46875V10.7812H16.5312C16.7219 10.7812 16.9047 10.857 17.0395 10.9918C17.1743 11.1266 17.25 11.3094 17.25 11.5C17.25 11.6906 17.1743 11.8734 17.0395 12.0082C16.9047 12.143 16.7219 12.2188 16.5312 12.2188H12.2188V16.5312C12.2188 16.7219 12.143 16.9047 12.0082 17.0395C11.8734 17.1743 11.6906 17.25 11.5 17.25C11.3094 17.25 11.1266 17.1743 10.9918 17.0395C10.857 16.9047 10.7812 16.7219 10.7812 16.5312V12.2188H6.46875C6.27813 12.2188 6.09531 12.143 5.96052 12.0082C5.82573 11.8734 5.75 11.6906 5.75 11.5C5.75 11.3094 5.82573 11.1266 5.96052 10.9918C6.09531 10.857 6.27813 10.7812 6.46875 10.7812H10.7812V6.46875C10.7812 6.27813 10.857 6.09531 10.9918 5.96052C11.1266 5.82573 11.3094 5.75 11.5 5.75Z" fill="#394249"/>
</g>
<defs>
<clipPath id="clip0_361_838">
<rect width="23" height="23" fill="white"/>
</clipPath>
</defs>
</svg>
