<?xml version="1.0" encoding="utf-8"?>
<!-- Generator: Adobe Illustrator 25.1.0, SVG Export Plug-In . SVG Version: 6.00 Build 0)  -->
<svg version="1.1" id="Слой_1" xmlns="http://www.w3.org/2000/svg" xmlns:xlink="http://www.w3.org/1999/xlink" x="0px" y="0px"
	 viewBox="0 0 32 32" style="enable-background:new 0 0 32 32;" xml:space="preserve">
<style type="text/css">
	.st0{fill:#FFFFFF;}
	.st1{fill:none;}
</style>
<g id="Layer_2">
	<path class="st0" d="M24,29H8c-2.8,0-5-2.2-5-5V10c0-0.6,0.4-1,1-1h20c2.8,0,5,2.2,5,5v10C29,26.8,26.8,29,24,29z M5,11v13
		c0,1.7,1.3,3,3,3h16c1.7,0,3-1.3,3-3V14c0-1.7-1.3-3-3-3H5z"/>
	<path class="st0" d="M26,11c-0.6,0-1-0.4-1-1V7.2c0-0.7-0.2-1.4-0.8-1.9c-0.5-0.4-1.1-0.5-1.7-0.3L5.8,8.9C5.3,9,5,9.4,5,9.9
		c0,0.6-0.4,1-1,1s-1-0.4-1-1c0-1.4,1-2.6,2.3-2.9l16.8-3.8c1.2-0.3,2.4,0,3.4,0.7c1,0.9,1.6,2.1,1.5,3.4V10C27,10.6,26.6,11,26,11z
		"/>
	<path class="st0" d="M28,23h-7c-2.2,0-4-1.8-4-4s1.8-4,4-4h7c0.6,0,1,0.4,1,1v6C29,22.6,28.6,23,28,23z M21,17c-1.1,0-2,0.9-2,2
		s0.9,2,2,2h6v-4H21z"/>
</g>
<g id="frame">
	<rect class="st1" width="32" height="32"/>
</g>
</svg>
