<?xml version="1.0" encoding="utf-8"?>
<!-- Generator: Adobe Illustrator 25.1.0, SVG Export Plug-In . SVG Version: 6.00 Build 0)  -->
<svg version="1.1" id="Capa_1" xmlns="http://www.w3.org/2000/svg" xmlns:xlink="http://www.w3.org/1999/xlink" x="0px" y="0px"
	 viewBox="0 0 456.6 456.6" style="enable-background:new 0 0 456.6 456.6;" xml:space="preserve">
<style type="text/css">
	.st0{fill:#FFFFFF;}
</style>
<g>
	<path class="st0" d="M383.1,243H74.2c-5.9,0-10.7-4.8-10.7-10.7s4.8-10.7,10.7-10.7h308.9c5.9,0,10.7,4.8,10.7,10.7
		S389,243,383.1,243z"/>
	<path class="st0" d="M277,295h-96.6c-5.9,0-10.7-4.8-10.7-10.7v-49.7c0-5.9,4.8-10.7,10.7-10.7s10.7,4.8,10.7,10.7v39h75.1v-41.3
		c0-5.9,4.8-10.7,10.7-10.7c5.9,0,10.7,4.8,10.7,10.7v52C287.7,290.2,282.9,295,277,295z"/>
	<path class="st0" d="M285,126.6c-7.4,0-13.4-6-13.4-13.4V93.5c0-23.9-19.4-43.3-43.3-43.3c-23.9,0-43.3,19.4-43.3,43.3v19.7
		c0,7.4-6,13.4-13.4,13.4c-7.4,0-13.4-6-13.4-13.4V93.5c0-38.7,31.5-70.2,70.2-70.2s70.2,31.5,70.2,70.2v19.7
		C298.4,120.6,292.4,126.6,285,126.6z"/>
	<path class="st0" d="M416.3,433.2h-376C18.1,433.2,0,415.2,0,392.9V140.1c0-22.2,18.1-40.3,40.3-40.3h376
		c22.2,0,40.3,18.1,40.3,40.3v252.9C456.6,415.2,438.5,433.2,416.3,433.2z M40.3,126.6c-7.4,0-13.4,6-13.4,13.4v252.9
		c0,7.4,6,13.4,13.4,13.4h376c7.4,0,13.4-6,13.4-13.4V140.1c0-7.4-6-13.4-13.4-13.4C416.3,126.6,40.3,126.6,40.3,126.6z"/>
</g>
</svg>
