<?xml version="1.0" encoding="utf-8"?>
<!-- Generator: Adobe Illustrator 25.1.0, SVG Export Plug-In . SVG Version: 6.00 Build 0)  -->
<svg version="1.1" id="Слой_1" xmlns="http://www.w3.org/2000/svg" xmlns:xlink="http://www.w3.org/1999/xlink" x="0px" y="0px"
	 viewBox="0 0 32 32" style="enable-background:new 0 0 32 32;" xml:space="preserve">
<style type="text/css">
	.st0{fill:#FFFFFF;}
	.st1{fill:none;}
</style>
<g id="Layer_2">
	<path class="st0" d="M16,29C8.8,29,3,23.2,3,16S8.8,3,16,3s13,5.8,13,13S23.2,29,16,29z M16,5C9.9,5,5,9.9,5,16s4.9,11,11,11
		s11-4.9,11-11S22.1,5,16,5z"/>
	<path class="st0" d="M16,17c-2.8,0-5-2.2-5-5s2.2-5,5-5s5,2.2,5,5S18.8,17,16,17z M16,9c-1.7,0-3,1.3-3,3s1.3,3,3,3s3-1.3,3-3
		S17.7,9,16,9z"/>
	<path class="st0" d="M25.5,24c-0.3,0-0.5-0.1-0.7-0.3c-2.1-2.3-5.2-3.7-8.4-3.7h-0.9c-2.9,0-5.7,1.1-7.8,3.2
		c-0.4,0.4-1.1,0.3-1.4-0.1c-0.3-0.4-0.3-0.9,0-1.3c2.5-2.4,5.8-3.7,9.2-3.7h0.9c3.7,0,7.3,1.6,9.8,4.3c0.4,0.4,0.4,1-0.1,1.4
		C26,23.9,25.8,24,25.5,24z"/>
</g>
<g id="frame">
	<rect class="st1" width="32" height="32"/>
</g>
</svg>
