<svg width="28" height="19" viewBox="0 0 28 19" fill="none" xmlns="http://www.w3.org/2000/svg">
<path d="M27.6364 9.5C27.6364 9.5 22.4545 0 13.8182 0C5.18182 0 0 9.5 0 9.5C0 9.5 5.18182 19 13.8182 19C22.4545 19 27.6364 9.5 27.6364 9.5ZM2.02609 9.5C2.86125 8.23067 3.82183 7.04846 4.89336 5.97118C7.11636 3.74473 10.1564 1.72727 13.8182 1.72727C17.48 1.72727 20.5183 3.74473 22.7447 5.97118C23.8163 7.04846 24.7768 8.23067 25.612 9.5C25.5118 9.65027 25.4013 9.81609 25.2752 9.99745C24.6965 10.8265 23.8415 11.932 22.7447 13.0288C20.5183 15.2553 17.4783 17.2727 13.8182 17.2727C10.1564 17.2727 7.11809 15.2553 4.89164 13.0288C3.82012 11.9515 2.85953 10.7693 2.02436 9.5H2.02609Z" fill="#6C7175"/>
<path d="M13.8182 5.18174C12.6729 5.18174 11.5746 5.63669 10.7647 6.44651C9.95493 7.25632 9.49998 8.35467 9.49998 9.49992C9.49998 10.6452 9.95493 11.7435 10.7647 12.5533C11.5746 13.3632 12.6729 13.8181 13.8182 13.8181C14.9634 13.8181 16.0618 13.3632 16.8716 12.5533C17.6814 11.7435 18.1363 10.6452 18.1363 9.49992C18.1363 8.35467 17.6814 7.25632 16.8716 6.44651C16.0618 5.63669 14.9634 5.18174 13.8182 5.18174ZM7.77271 9.49992C7.77271 7.89657 8.40964 6.35888 9.54338 5.22514C10.6771 4.0914 12.2148 3.45447 13.8182 3.45447C15.4215 3.45447 16.9592 4.0914 18.0929 5.22514C19.2267 6.35888 19.8636 7.89657 19.8636 9.49992C19.8636 11.1033 19.2267 12.641 18.0929 13.7747C16.9592 14.9084 15.4215 15.5454 13.8182 15.5454C12.2148 15.5454 10.6771 14.9084 9.54338 13.7747C8.40964 12.641 7.77271 11.1033 7.77271 9.49992Z" fill="#6C7175"/>
</svg>
