<svg width="53" height="53" viewBox="0 0 53 53" fill="none" xmlns="http://www.w3.org/2000/svg">
<path d="M45.3812 40.7438L36.9344 32.2969C38.5906 29.6469 39.75 26.5 39.75 23.1875C39.75 14.0781 32.2969 6.625 23.1875 6.625C14.0781 6.625 6.625 14.0781 6.625 23.1875C6.625 32.2969 14.0781 39.75 23.1875 39.75C26.5 39.75 29.6469 38.7562 32.2969 36.9344L40.7438 45.3812C42.0688 46.7062 44.0562 46.7062 45.3812 45.3812C46.7062 44.0562 46.7062 42.0688 45.3812 40.7438ZM11.5938 23.1875C11.5938 16.7281 16.7281 11.5938 23.1875 11.5938C29.6469 11.5938 34.7812 16.7281 34.7812 23.1875C34.7812 29.6469 29.6469 34.7812 23.1875 34.7812C16.7281 34.7812 11.5938 29.6469 11.5938 23.1875Z" fill="#394249"/>
</svg>
