<svg width="28" height="25" viewBox="0 0 28 25" fill="none" xmlns="http://www.w3.org/2000/svg">
<g clip-path="url(#clip0_903_4381)">
<path d="M23.3654 13.3997H4.5254C4.16556 13.3997 3.8728 13.1069 3.8728 12.7471C3.8728 12.3872 4.16556 12.0945 4.5254 12.0945H23.3654C23.7252 12.0945 24.018 12.3872 24.018 12.7471C24.018 13.1069 23.7252 13.3997 23.3654 13.3997Z" fill="white"/>
<path d="M16.8944 16.5712H11.0027C10.6429 16.5712 10.3501 16.2784 10.3501 15.9186V12.8874C10.3501 12.5275 10.6429 12.2348 11.0027 12.2348C11.3625 12.2348 11.6553 12.5275 11.6553 12.8874V15.266H16.2357V12.7471C16.2357 12.3872 16.5284 12.0945 16.8883 12.0945C17.2481 12.0945 17.5409 12.3872 17.5409 12.7471V15.9186C17.547 16.2784 17.2542 16.5712 16.8944 16.5712Z" fill="white"/>
<path d="M17.3823 6.30032C16.9309 6.30032 16.565 5.93437 16.565 5.48304V4.28153C16.565 2.82386 15.3818 1.64064 13.9241 1.64064C12.4664 1.64064 11.2832 2.82386 11.2832 4.28153V5.48304C11.2832 5.93437 10.9173 6.30032 10.466 6.30032C10.0146 6.30032 9.64868 5.93437 9.64868 5.48304V4.28153C9.64868 1.9212 11.5699 0 13.9302 0C16.2905 0 18.2117 1.9212 18.2117 4.28153V5.48304C18.1995 5.93437 17.8336 6.30032 17.3823 6.30032Z" fill="white"/>
<path d="M25.3903 25H2.45792C1.10393 25 0 23.9022 0 22.5421V7.12369C0 5.7697 1.10393 4.66577 2.45792 4.66577H25.3903C26.7443 4.66577 27.8482 5.7697 27.8482 7.12369V22.5482C27.8482 23.9022 26.7443 25 25.3903 25ZM2.45792 6.30032C2.00659 6.30032 1.64064 6.66626 1.64064 7.11759V22.5421C1.64064 22.9934 2.00659 23.3594 2.45792 23.3594H25.3903C25.8417 23.3594 26.2076 22.9934 26.2076 22.5421V7.12369C26.2076 6.67236 25.8417 6.30642 25.3903 6.30642C25.3903 6.30032 2.45792 6.30032 2.45792 6.30032Z" fill="white"/>
</g>
<defs>
<clipPath id="clip0_903_4381">
<rect width="27.85" height="25" fill="white"/>
</clipPath>
</defs>
</svg>
