<svg width="36" height="36" viewBox="0 0 36 36" fill="none" xmlns="http://www.w3.org/2000/svg">
<path d="M18.1969 35.6626C8.46562 35.7047 0.464053 27.6047 0.696085 17.7118C0.914053 8.2899 8.71874 0.506308 18.4219 0.611777C28.0336 0.717246 35.9859 8.71881 35.7258 18.6258C35.4797 28.0055 27.7383 35.7118 18.1969 35.6626ZM2.82655 18.1618C2.9039 26.9719 10.0476 33.7571 18.4852 33.6094C26.6555 33.4618 33.5812 26.8032 33.5812 18.1407C33.5812 9.33053 26.3812 2.51725 17.9156 2.67896C9.74531 2.82662 2.8828 9.50631 2.82655 18.1618Z" fill="white"/>
<path d="M14.5405 30.4734C14.5405 26.332 14.5405 22.2258 14.5405 18.0773C13.6265 18.0773 12.7405 18.0773 11.8335 18.0773C11.8335 16.6711 11.8335 15.307 11.8335 13.9008C11.953 13.8938 12.0726 13.8797 12.1991 13.8797C12.853 13.8797 13.514 13.8656 14.1679 13.8867C14.4562 13.8938 14.5546 13.8164 14.5476 13.5211C14.5335 12.4523 14.5335 11.3906 14.5405 10.3219C14.5476 9.11953 14.8851 8.02969 15.7429 7.15781C16.5726 6.31406 17.6343 5.85703 18.7874 5.78672C20.6437 5.68125 22.5069 5.69531 24.3702 5.66016C24.3913 5.66016 24.4124 5.68125 24.4546 5.70234C24.4546 7.11563 24.4546 8.53594 24.4546 9.99141C24.321 9.99844 24.1944 10.0055 24.0749 10.0055C23.2312 10.0055 22.3874 10.0055 21.5437 10.0055C20.6929 10.0125 20.1937 10.5188 20.1937 11.3555C20.1937 12.15 20.1937 12.9516 20.2007 13.7461C20.2007 13.7672 20.2147 13.7883 20.2358 13.8656C21.628 13.8656 23.0343 13.8656 24.5108 13.8656C24.328 15.293 24.1593 16.657 23.9765 18.0703C22.7038 18.0703 21.4593 18.0703 20.1796 18.0703C20.1796 22.2328 20.1796 26.3531 20.1796 30.4875C18.2882 30.4734 16.446 30.4734 14.5405 30.4734Z" fill="white"/>
</svg>
