<svg width="164" height="57" viewBox="0 0 164 57" fill="none" xmlns="http://www.w3.org/2000/svg">
<path d="M76.523 10.0072C87.046 14.2451 100.247 30.5015 80.8703 50.3747H63.4812C82 44.2693 85.3289 22.8637 75.5 14.7693C69.0866 9.48767 58.4035 9.46523 53.5449 9.77249C51.9719 9.90714 51 10.0073 51 10.0073C51 10.0073 51.9642 9.87246 53.5449 9.77249C59.165 9.29143 72.459 8.37051 76.523 10.0072Z" fill="#722900"/>
<path d="M8.64487 44.7358C5.64732 44.7358 3.45298 44.0485 2.06185 42.674C0.687283 41.2994 0 39.1216 0 36.1406C0 35.8425 0.0993661 35.5941 0.298099 35.3954C0.496831 35.1966 0.745247 35.0973 1.04335 35.0973C1.34144 35.0973 1.58986 35.1966 1.78859 35.3954C1.98733 35.5941 2.08669 35.8425 2.08669 36.1406C2.08669 38.542 2.56696 40.2312 3.5275 41.2083C4.5046 42.1688 6.21039 42.6491 8.64487 42.6491H15.7992C18.2337 42.6491 19.9312 42.1688 20.8918 41.2083C21.8689 40.2312 22.3574 38.542 22.3574 36.1406C22.3574 33.7227 21.8689 32.0335 20.8918 31.0729C19.9312 30.1124 18.2337 29.6321 15.7992 29.6321H8.79391C5.94541 29.6321 3.867 28.9862 2.55868 27.6945C1.25036 26.3862 0.596198 24.316 0.596198 21.4841C0.596198 18.6522 1.24208 16.5903 2.53384 15.2985C3.84216 13.9902 5.91229 13.3361 8.74423 13.3361H16.0477C18.8796 13.3361 20.9414 13.9819 22.2332 15.2737C23.5415 16.5655 24.1957 18.619 24.1957 21.4344C24.1957 21.7325 24.0963 21.9809 23.8976 22.1797C23.6989 22.3784 23.4504 22.4778 23.1523 22.4778C22.8542 22.4778 22.6058 22.3784 22.4071 22.1797C22.2084 21.9809 22.109 21.7325 22.109 21.4344C22.109 19.2152 21.6536 17.6585 20.7427 16.7642C19.8484 15.8699 18.2834 15.4228 16.0477 15.4228H8.74423C6.50849 15.4228 4.93519 15.8782 4.02433 16.789C3.13004 17.6833 2.68289 19.2484 2.68289 21.4841C2.68289 23.7198 3.13832 25.2931 4.04918 26.204C4.96003 27.0983 6.54161 27.5454 8.79391 27.5454H15.7992C18.8133 27.5454 21.0077 28.2327 22.3823 29.6073C23.7568 30.9819 24.4441 33.1596 24.4441 36.1406C24.4441 39.1216 23.7568 41.2994 22.3823 42.674C21.0077 44.0485 18.8133 44.7358 15.7992 44.7358H8.64487Z" fill="#E9EEF2"/>
<path d="M37.4382 44.8352C37.1401 44.8352 36.8917 44.7358 36.6929 44.5371C36.4942 44.3383 36.3948 44.0899 36.3948 43.7918V15.3731H25.5142C25.2161 15.3731 24.9677 15.2737 24.769 15.075C24.5703 14.8762 24.4709 14.6278 24.4709 14.3297C24.4709 14.0316 24.5703 13.7832 24.769 13.5845C24.9677 13.3857 25.2161 13.2864 25.5142 13.2864H49.3621C49.6602 13.2864 49.9087 13.3857 50.1074 13.5845C50.3061 13.7832 50.4055 14.0316 50.4055 14.3297C50.4055 14.6278 50.3061 14.8762 50.1074 15.075C49.9087 15.2737 49.6602 15.3731 49.3621 15.3731H38.4815V43.7918C38.4815 44.0899 38.3822 44.3383 38.1834 44.5371C37.9847 44.7358 37.7363 44.8352 37.4382 44.8352Z" fill="#E9EEF2"/>
<path d="M60.974 44.7855C57.4465 44.7855 54.8796 43.9906 53.2731 42.4007C51.6833 40.7943 50.8883 38.2273 50.8883 34.6998V23.4217C50.8883 19.8611 51.6833 17.2859 53.2731 15.696C54.8796 14.0896 57.43 13.3029 60.9243 13.3361H66.936C70.4635 13.3361 73.0222 14.1393 74.612 15.7457C76.2185 17.3356 77.0217 19.8942 77.0217 23.4217V34.6998C77.0217 38.2273 76.2185 40.7943 74.612 42.4007C73.0222 43.9906 70.4635 44.7855 66.936 44.7855H60.974ZM60.974 42.6988H66.936C68.8902 42.6988 70.4469 42.4421 71.6062 41.9287C72.782 41.3988 73.6267 40.5541 74.1401 39.3949C74.67 38.219 74.935 36.654 74.935 34.6998V23.4217C74.935 21.4675 74.67 19.9108 74.1401 18.7515C73.6267 17.5757 72.782 16.7311 71.6062 16.2177C70.4469 15.6877 68.8902 15.4228 66.936 15.4228H60.9243C58.9701 15.4062 57.4134 15.6546 56.2541 16.168C55.0948 16.6814 54.2585 17.526 53.7451 18.7018C53.2317 19.8777 52.975 21.451 52.975 23.4217V34.6998C52.975 36.654 53.2317 38.219 53.7451 39.3949C54.2751 40.5541 55.1197 41.3988 56.279 41.9287C57.4548 42.4421 59.0198 42.6988 60.974 42.6988Z" fill="#E9EEF2"/>
<path d="M84.2529 44.7855C83.5573 44.7855 83.2095 44.4377 83.2095 43.7421V14.3794C83.2095 13.6838 83.5573 13.3361 84.2529 13.3361C84.6338 13.3361 84.9981 13.5348 85.3459 13.9323L106.759 41.407H106.312V14.3794C106.312 13.6838 106.66 13.3361 107.356 13.3361C108.051 13.3361 108.399 13.6838 108.399 14.3794V43.7421C108.399 44.4377 108.051 44.7855 107.356 44.7855C106.975 44.7855 106.61 44.5868 106.263 44.1893L84.8491 16.7145H85.2962V43.7421C85.2962 44.4377 84.9485 44.7855 84.2529 44.7855Z" fill="#E9EEF2"/>
<path d="M116.126 44.7855C115.43 44.7855 115.082 44.4377 115.082 43.7421V14.3794C115.082 13.6838 115.43 13.3361 116.126 13.3361C116.821 13.3361 117.169 13.6838 117.169 14.3794V29.5079L132.621 13.6838C133.101 13.2036 133.581 13.2036 134.061 13.6838C134.575 14.1475 134.591 14.6444 134.111 15.1743L122.783 26.7505L136.098 43.2453C136.546 43.7918 136.496 44.2887 135.949 44.7358C135.419 45.1664 134.939 45.1167 134.509 44.5868L121.343 28.241L117.169 32.5138V43.7421C117.169 44.4377 116.821 44.7855 116.126 44.7855Z" fill="#E9EEF2"/>
<path d="M147.777 44.7358C144.78 44.7358 142.585 44.0485 141.194 42.674C139.819 41.2994 139.132 39.1216 139.132 36.1406C139.132 35.8425 139.232 35.5941 139.43 35.3954C139.629 35.1966 139.877 35.0973 140.176 35.0973C140.474 35.0973 140.722 35.1966 140.921 35.3954C141.12 35.5941 141.219 35.8425 141.219 36.1406C141.219 38.542 141.699 40.2312 142.66 41.2083C143.637 42.1688 145.343 42.6491 147.777 42.6491H154.931C157.366 42.6491 159.063 42.1688 160.024 41.2083C161.001 40.2312 161.49 38.542 161.49 36.1406C161.49 33.7227 161.001 32.0335 160.024 31.0729C159.063 30.1124 157.366 29.6321 154.931 29.6321H147.926C145.078 29.6321 142.999 28.9862 141.691 27.6945C140.383 26.3862 139.728 24.316 139.728 21.4841C139.728 18.6522 140.374 16.5903 141.666 15.2985C142.974 13.9902 145.044 13.3361 147.876 13.3361H155.18C158.012 13.3361 160.074 13.9819 161.365 15.2737C162.674 16.5655 163.328 18.619 163.328 21.4344C163.328 21.7325 163.229 21.9809 163.03 22.1797C162.831 22.3784 162.583 22.4778 162.285 22.4778C161.986 22.4778 161.738 22.3784 161.539 22.1797C161.341 21.9809 161.241 21.7325 161.241 21.4344C161.241 19.2152 160.786 17.6585 159.875 16.7642C158.981 15.8699 157.416 15.4228 155.18 15.4228H147.876C145.641 15.4228 144.067 15.8782 143.157 16.789C142.262 17.6833 141.815 19.2484 141.815 21.4841C141.815 23.7198 142.271 25.2931 143.181 26.204C144.092 27.0983 145.674 27.5454 147.926 27.5454H154.931C157.946 27.5454 160.14 28.2327 161.514 29.6073C162.889 30.9819 163.576 33.1596 163.576 36.1406C163.576 39.1216 162.889 41.2994 161.514 42.674C160.14 44.0485 157.946 44.7358 154.931 44.7358H147.777Z" fill="#E9EEF2"/>
<path d="M60.5 8.26891C30.7182 9.56349 14.4683 38.353 9.5 54.5C9.5 54.5 12.8948 57 16 57C19.1052 57 24.3555 55.9645 24.3555 55.9645C33.2985 17.7084 67.5 6.26901 76.5228 10.0076L76.4897 9.99152C74.9564 9.24743 71.9173 7.77261 60.5 8.26891Z" fill="#FF7A00"/>
<path d="M135.95 8.05816C122.112 9.29887 92.3628 22.0992 81.4912 50.8522C79.4211 52.3013 72.6725 54.33 62.239 50.8522C74 32.2691 101.5 4.76849 133.5 4.76849C128 2.76793 129.5 2.76758 121 1.76767C116.51 1.23943 149 -1.23048 159.5 0.769264C155 2.76944 151.5 2.76944 137 16.2692C138.105 12.3241 137.324 10.1083 135.95 8.05816Z" fill="#FF7A00"/>
</svg>
