<svg width="34" height="34" viewBox="0 0 34 34" fill="none" xmlns="http://www.w3.org/2000/svg">
<g clip-path="url(#clip0_1431_1431)">
<path d="M33.3721 8.06988C33.1769 7.86683 32.9419 7.70626 32.6818 7.59822C32.4217 7.49017 32.1421 7.43698 31.8605 7.44197H2.13954C1.55814 7.44197 1.05814 7.65127 0.639536 8.06988C0.437256 8.26138 0.276199 8.49217 0.166231 8.74809C0.0562631 9.00402 -0.000301795 9.2797 1.21093e-06 9.55825C1.21093e-06 10.1396 0.209304 10.6396 0.627908 11.0583L15.5116 25.9303C15.9302 26.3489 16.4186 26.5583 17 26.5583C17.5814 26.5583 18.0698 26.3489 18.4884 25.9303L33.3721 11.0466C33.7791 10.6396 34 10.1396 34 9.55825C34 8.97686 33.7791 8.48848 33.3605 8.06988H33.3721Z" fill="#EE8100"/>
</g>
<defs>
<clipPath id="clip0_1431_1431">
<rect width="34" height="34" fill="white"/>
</clipPath>
</defs>
</svg>
