<svg width="20" height="20" viewBox="0 0 20 20" fill="none" xmlns="http://www.w3.org/2000/svg">
<path d="M19.5 17.1667L15.25 12.9167C16.0833 11.5833 16.6667 10 16.6667 8.33333C16.6667 3.75 12.9167 0 8.33333 0C3.75 0 0 3.75 0 8.33333C0 12.9167 3.75 16.6667 8.33333 16.6667C10 16.6667 11.5833 16.1667 12.9167 15.25L17.1667 19.5C17.8333 20.1667 18.8333 20.1667 19.5 19.5C20.1667 18.8333 20.1667 17.8333 19.5 17.1667ZM2.5 8.33333C2.5 5.08333 5.08333 2.5 8.33333 2.5C11.5833 2.5 14.1667 5.08333 14.1667 8.33333C14.1667 11.5833 11.5833 14.1667 8.33333 14.1667C5.08333 14.1667 2.5 11.5833 2.5 8.33333Z" fill="#202020"/>
</svg>
