<svg width="25" height="25" viewBox="0 0 25 25" fill="none" xmlns="http://www.w3.org/2000/svg">
<g clipPath="url(#clip0_903_4383)">
<path d="M20.1923 25H4.80769C2.11538 25 0 22.8778 0 20.1767V6.67145C0 6.09265 0.384615 5.70679 0.961538 5.70679H20.1923C22.8846 5.70679 25 7.82904 25 10.5301V20.1767C25 22.8778 22.8846 25 20.1923 25ZM1.92308 7.63611V20.1767C1.92308 21.8166 3.17308 23.0707 4.80769 23.0707H20.1923C21.8269 23.0707 23.0769 21.8166 23.0769 20.1767V10.5301C23.0769 8.89017 21.8269 7.63611 20.1923 7.63611H1.92308Z" fill="white"/>
<path d="M22.1154 7.6361C21.5385 7.6361 21.1538 7.25024 21.1538 6.67144V3.97039C21.1538 3.29513 20.9615 2.61986 20.3846 2.13753C19.9038 1.75167 19.3269 1.6552 18.75 1.84813L2.69231 5.61031C2.21154 5.70678 1.92308 6.09264 1.92308 6.57497C1.92308 7.15377 1.53846 7.53963 0.961538 7.53963C0.384615 7.53963 0 7.15377 0 6.57497C0 5.22445 0.961539 4.06686 2.21154 3.77746L18.3654 0.111745C19.5192 -0.177654 20.6731 0.111745 21.6346 0.787008C22.5962 1.6552 23.1731 2.8128 23.0769 4.06686V6.67144C23.0769 7.25024 22.6923 7.6361 22.1154 7.6361Z" fill="white"/>
<path d="M24.0386 19.2119H17.3078C15.1924 19.2119 13.4617 17.4755 13.4617 15.3533C13.4617 13.231 15.1924 11.4946 17.3078 11.4946H24.0386C24.6155 11.4946 25.0001 11.8805 25.0001 12.4593V18.2473C25.0001 18.8261 24.6155 19.2119 24.0386 19.2119ZM17.3078 13.424C16.2501 13.424 15.3847 14.2921 15.3847 15.3533C15.3847 16.4144 16.2501 17.2826 17.3078 17.2826H23.0771V13.424H17.3078Z" fill="white"/>
</g>
<defs>
<clipPath id="clip0_903_4383">
<rect width="25" height="25" fill="white"/>
</clipPath>
</defs>
</svg>
