<svg width="37" height="37" viewBox="0 0 37 37" fill="none" xmlns="http://www.w3.org/2000/svg">
<path d="M18.818 32.4473C14.6917 32.3172 10.7676 32.2161 6.84361 32.0643C5.99811 32.0282 5.13815 31.8981 4.31432 31.703C2.76783 31.3417 1.6983 30.4094 1.14908 28.8846C0.708265 27.6561 0.54928 26.3915 0.433655 25.1051C0.180726 22.0844 0.180726 19.0637 0.303577 16.043C0.375843 14.3375 0.419202 12.6176 0.874475 10.9627C1.14908 9.9727 1.48151 9.00434 2.28365 8.28891C3.12916 7.53012 4.1192 7.07485 5.24654 7.02426C8.33951 6.8725 11.4253 6.68461 14.5182 6.65571C18.6807 6.61235 22.8504 6.67016 27.0129 6.74965C28.8124 6.78579 30.6262 6.87973 32.4112 7.11098C34.0444 7.32778 35.2657 8.23833 35.9161 9.82817C36.4147 11.0495 36.6026 12.3286 36.711 13.6293C36.9928 16.8885 37.0001 20.1477 36.8411 23.4069C36.7616 25.0618 36.6821 26.7239 36.2124 28.3354C35.6776 30.1854 34.543 31.4067 32.6497 31.8258C31.9126 31.9848 31.1465 32.0426 30.395 32.0715C26.4637 32.2088 22.5397 32.3317 18.818 32.4473ZM14.8217 24.2307C18.1171 22.5252 21.3762 20.8342 24.7004 19.1071C21.3835 17.3727 18.1243 15.6745 14.8217 13.9473C14.8217 17.3944 14.8217 20.7836 14.8217 24.2307Z" fill="white"/>
</svg>
